<?xml version="1.0" standalone="no"?>
<!DOCTYPE svg PUBLIC "-//W3C//DTD SVG 20010904//EN"
 "http://www.w3.org/TR/2001/REC-SVG-20010904/DTD/svg10.dtd">
<svg version="1.0" xmlns="http://www.w3.org/2000/svg"
 width="576.000000pt" height="576.000000pt" viewBox="0 0 576.000000 576.000000"
 preserveAspectRatio="xMidYMid meet">
<metadata>
Created by potrace 1.14, written by Peter Selinger 2001-2017
</metadata>
<g transform="translate(0.000000,576.000000) scale(0.100000,-0.100000)"
fill="#000000" stroke="none">
<path d="M1112 5726 l-40 -37 -2 -1037 c-6 -3864 -5 -4565 8 -4592 25 -51 99
-75 154 -49 13 5 32 23 44 40 l21 30 0 1054 c0 581 3 1058 6 1062 4 3 832 6
1839 6 1798 0 1834 0 1861 19 54 38 67 108 32 162 -36 54 69 51 -1906 50
l-1834 0 1 438 c1 242 4 441 7 444 4 5 90 6 227 3 8 0 44 0 80 0 36 1 72 1 80
0 8 0 44 0 80 0 36 1 72 1 80 0 8 0 44 0 80 0 36 1 72 1 80 0 8 0 44 0 80 0
36 1 72 1 80 0 8 0 44 0 80 0 36 1 72 1 80 0 8 0 44 0 80 0 36 1 72 1 80 0 8
0 67 0 130 0 63 1 124 1 135 1 195 -1 362 -1 370 -1 6 0 420 2 920 5 501 2
918 5 927 5 22 1 78 58 79 79 0 9 2 24 4 34 4 22 -28 73 -59 93 -23 15 -176
17 -1861 17 -1712 -1 -1835 1 -1836 16 0 9 -1 489 -1 1067 l-2 1049 -30 34
c-22 24 -42 35 -72 39 -37 5 -45 2 -82 -31z"/>
</g>
</svg>
